<svg width="476" height="476" viewBox="0 0 476 476" fill="none" xmlns="http://www.w3.org/2000/svg">
<path fill-rule="evenodd" clip-rule="evenodd" d="M310.021 177L326.5 193.479L342.763 177.216L354.784 189.237L338.521 205.5L354.569 221.548L342.548 233.569L326.5 217.521L310.237 233.784L298.216 221.763L314.479 205.5L298 189.021L310.021 177ZM326 273C283.474 273 249 238.526 249 196H264C264 230.242 291.758 258 326 258C360.242 258 388 230.242 388 196H403C403 238.526 368.526 273 326 273Z" fill="#1B1B1B"/>
<path fill-rule="evenodd" clip-rule="evenodd" d="M134.021 177L150.5 193.479L166.763 177.216L178.784 189.237L162.521 205.5L178.569 221.548L166.548 233.569L150.5 217.521L134.237 233.784L122.216 221.763L138.479 205.5L122 189.021L134.021 177ZM150 273C107.474 273 73 238.526 73 196H88C88 230.242 115.758 258 150 258C184.242 258 212 230.242 212 196H227C227 238.526 192.526 273 150 273Z" fill="#1B1B1B"/>
<path fill-rule="evenodd" clip-rule="evenodd" d="M476 238C476 262.729 472.229 286.577 465.229 309H10.7705C3.77148 286.577 0 262.729 0 238C0 106.556 106.556 0 238 0C369.444 0 476 106.556 476 238ZM238 476C158.442 476 88.0011 436.964 44.7865 377H431.214C387.999 436.964 317.558 476 238 476ZM134.021 177L150.5 193.479L166.763 177.216L178.784 189.237L162.521 205.5L178.569 221.548L166.548 233.569L150.5 217.521L134.237 233.784L122.216 221.763L138.479 205.5L122 189.021L134.021 177ZM150 273C107.474 273 73 238.526 73 196H88C88 230.242 115.758 258 150 258C184.242 258 212 230.242 212 196H227C227 238.526 192.526 273 150 273ZM326.5 193.479L310.021 177L298 189.021L314.479 205.5L298.216 221.763L310.237 233.784L326.5 217.521L342.548 233.569L354.569 221.548L338.521 205.5L354.784 189.237L342.763 177.216L326.5 193.479ZM249 196C249 238.526 283.474 273 326 273C368.526 273 403 238.526 403 196H388C388 230.242 360.242 258 326 258C291.758 258 264 230.242 264 196H249Z" fill="#FFA31A"/>
<path d="M51.3086 354H40.0293V352.934H43.9258V330.457H41.7109C39.6055 330.621 38.1152 332.043 37.2402 334.723L36.584 337.471H35.4355L35.6406 329.391H55.9023L56.1074 337.471H54.959L54.3027 334.723C54.2754 334.668 54.2617 334.586 54.2617 334.477C53.5234 331.797 52.0469 330.457 49.832 330.457H47.4531V352.934H50.2422C50.3789 352.934 50.5156 352.947 50.6523 352.975C51.0898 353.057 51.3086 353.398 51.3086 354ZM72.1035 328.98C74.8926 328.98 77.3535 329.787 79.4863 331.4C82.6309 333.752 84.2031 337.184 84.2031 341.695C84.2031 345.551 82.9043 348.695 80.3066 351.129C77.9824 353.316 75.207 354.41 71.9805 354.41C69.1094 354.41 66.5664 353.535 64.3516 351.785C61.3164 349.379 59.7988 345.961 59.7988 341.531C59.7988 337.703 61.084 334.6 63.6543 332.221C66.0059 330.061 68.8223 328.98 72.1035 328.98ZM72.1035 353.262C73.1973 353.262 74.209 353.057 75.1387 352.646C78.4473 351.197 80.1016 347.492 80.1016 341.531C80.0742 333.984 77.3672 330.184 71.9805 330.129C71.2148 330.129 70.4902 330.211 69.8066 330.375C65.8691 331.414 63.9004 335.188 63.9004 341.695C63.9004 343.664 64.0918 345.4 64.4746 346.904C65.5957 351.143 68.1387 353.262 72.1035 353.262ZM99.3789 330.457H94.9082V341.941H98.6816C99.0098 341.941 99.3379 341.928 99.666 341.9C102.838 341.545 104.424 339.59 104.424 336.035C104.424 335.215 104.314 334.449 104.096 333.738C103.385 331.551 101.812 330.457 99.3789 330.457ZM99.0098 354H88.0996V352.934H91.3809V330.457H88.0996V329.391H100.24C101.99 329.391 103.494 329.691 104.752 330.293C107.104 331.387 108.279 333.287 108.279 335.994C108.279 337.252 107.992 338.359 107.418 339.316C105.969 341.859 103.002 343.131 98.5176 343.131H94.9082V352.934H97.9434C98.0801 352.934 98.2168 352.947 98.3535 352.975C98.791 353.057 99.0098 353.398 99.0098 354ZM130.428 330.457H125.957V341.941H129.73C130.059 341.941 130.387 341.928 130.715 341.9C133.887 341.545 135.473 339.59 135.473 336.035C135.473 335.215 135.363 334.449 135.145 333.738C134.434 331.551 132.861 330.457 130.428 330.457ZM130.059 354H119.148V352.934H122.43V330.457H119.148V329.391H131.289C133.039 329.391 134.543 329.691 135.801 330.293C138.152 331.387 139.328 333.287 139.328 335.994C139.328 337.252 139.041 338.359 138.467 339.316C137.018 341.859 134.051 343.131 129.566 343.131H125.957V352.934H128.992C129.129 352.934 129.266 352.947 129.402 352.975C129.84 353.057 130.059 353.398 130.059 354ZM155.119 328.98C157.908 328.98 160.369 329.787 162.502 331.4C165.646 333.752 167.219 337.184 167.219 341.695C167.219 345.551 165.92 348.695 163.322 351.129C160.998 353.316 158.223 354.41 154.996 354.41C152.125 354.41 149.582 353.535 147.367 351.785C144.332 349.379 142.814 345.961 142.814 341.531C142.814 337.703 144.1 334.6 146.67 332.221C149.021 330.061 151.838 328.98 155.119 328.98ZM155.119 353.262C156.213 353.262 157.225 353.057 158.154 352.646C161.463 351.197 163.117 347.492 163.117 341.531C163.09 333.984 160.383 330.184 154.996 330.129C154.23 330.129 153.506 330.211 152.822 330.375C148.885 331.414 146.916 335.188 146.916 341.695C146.916 343.664 147.107 345.4 147.49 346.904C148.611 351.143 151.154 353.262 155.119 353.262ZM181.164 354H171.115V352.934H174.396V330.457H171.115V329.391H183.256C185.389 329.391 187.18 329.883 188.629 330.867C190.406 332.098 191.295 333.738 191.295 335.789C191.295 336.637 191.117 337.471 190.762 338.291C189.805 340.369 188.027 341.723 185.43 342.352L192.033 352.934H193.592C193.783 352.934 193.947 352.947 194.084 352.975C194.412 353.057 194.576 353.398 194.576 354H188.383L181.82 342.721H177.924V352.934H181.164V354ZM182.025 330.457H177.924V341.531H182.148C183.379 341.531 184.459 341.162 185.389 340.424C186.756 339.33 187.439 337.799 187.439 335.83C187.439 334.955 187.262 334.121 186.906 333.328C186.004 331.414 184.377 330.457 182.025 330.457ZM213.197 330.457V329.391H221.605V330.457H218.324V353.795L216.438 354.205L200.318 333.943V352.934H202.738C202.875 352.934 203.012 352.947 203.148 352.975C203.586 353.057 203.805 353.398 203.805 354H195.396V352.934H198.678V330.457H195.396V329.391H201.098L216.684 348.832V330.457H213.197ZM255.156 354H246.297V352.934H248.963L245.887 344.977H237.314L234.238 352.934H236.248C236.385 352.934 236.521 352.947 236.658 352.975C237.096 353.057 237.314 353.398 237.314 354H230.014V352.934H232.598L241.785 329.391H243.303L252.695 352.934H254.09C254.227 352.934 254.363 352.947 254.5 352.975C254.938 353.057 255.156 353.398 255.156 354ZM245.436 343.787L241.58 333.861L237.766 343.787H245.436ZM277.633 352.113C275.117 353.617 272.479 354.383 269.717 354.41C265.943 354.41 262.881 353.152 260.529 350.637C258.314 348.203 257.207 345.195 257.207 341.613C257.207 338.66 258 336.049 259.586 333.779C261.883 330.58 265.191 328.98 269.512 328.98C270.824 328.98 272.109 329.131 273.367 329.432C275.281 329.924 276.635 330.566 277.428 331.359C277.428 330.621 277.469 330.088 277.551 329.76C277.688 329.377 278.057 329.186 278.658 329.186L278.781 336.732H277.797C277.605 336.131 277.373 335.543 277.1 334.969C275.568 331.742 273.094 330.129 269.676 330.129C268.172 330.129 266.805 330.512 265.574 331.277C262.758 333.109 261.35 336.582 261.35 341.695C261.35 344.074 261.664 346.139 262.293 347.889C263.578 351.471 265.998 353.262 269.553 353.262C273.736 353.234 276.525 350.965 277.92 346.453H278.904V354.205C278.576 354.205 278.316 354.164 278.125 354.082C277.797 353.918 277.633 353.262 277.633 352.113ZM298.059 354H286.779V352.934H290.676V330.457H288.461C286.355 330.621 284.865 332.043 283.99 334.723L283.334 337.471H282.186L282.391 329.391H302.652L302.857 337.471H301.709L301.053 334.723C301.025 334.668 301.012 334.586 301.012 334.477C300.273 331.797 298.797 330.457 296.582 330.457H294.203V352.934H296.992C297.129 352.934 297.266 352.947 297.402 352.975C297.84 353.057 298.059 353.398 298.059 354ZM315.982 354H305.934V352.934H309.215V330.457H305.934V329.391H318.074C320.207 329.391 321.998 329.883 323.447 330.867C325.225 332.098 326.113 333.738 326.113 335.789C326.113 336.637 325.936 337.471 325.58 338.291C324.623 340.369 322.846 341.723 320.248 342.352L326.852 352.934H328.41C328.602 352.934 328.766 352.947 328.902 352.975C329.23 353.057 329.395 353.398 329.395 354H323.201L316.639 342.721H312.742V352.934H315.982V354ZM316.844 330.457H312.742V341.531H316.967C318.197 341.531 319.277 341.162 320.207 340.424C321.574 339.33 322.258 337.799 322.258 335.83C322.258 334.955 322.08 334.121 321.725 333.328C320.822 331.414 319.195 330.457 316.844 330.457ZM350.148 336.773H349.328L348.754 334.846C348.727 334.736 348.686 334.6 348.631 334.436C347.783 331.783 346.375 330.457 344.406 330.457H337.844V340.711H346.293V341.9H337.844V352.934H344.406C344.871 352.934 345.309 352.865 345.719 352.729C347.059 352.264 348.07 350.869 348.754 348.545L349.328 346.617H350.148L349.943 354H331.035V352.934H334.316V330.457H331.035V329.391H349.943L350.148 336.773ZM372.133 347.561C372.133 349.229 371.545 350.664 370.369 351.867C368.646 353.562 366.213 354.41 363.068 354.41C360.389 354.41 357.996 353.713 355.891 352.318C355.891 352.893 355.863 353.289 355.809 353.508C355.699 353.891 355.316 354.082 354.66 354.082V345.592H355.891C356.355 350.65 358.68 353.207 362.863 353.262C363.93 353.262 364.9 353.07 365.775 352.688C367.635 351.84 368.564 350.459 368.564 348.545C368.564 347.807 368.387 347.123 368.031 346.494C367.375 345.373 365.816 344.266 363.355 343.172C360.703 342.023 359.145 341.326 358.68 341.08C356.109 339.631 354.824 337.758 354.824 335.461C354.824 333.93 355.371 332.59 356.465 331.441C358.105 329.801 360.402 328.98 363.355 328.98C365.789 328.98 367.977 329.514 369.918 330.58C369.918 330.252 369.945 329.992 370 329.801C370.109 329.391 370.492 329.186 371.148 329.186V336.363H369.918C369.945 334.832 369.562 333.533 368.77 332.467C367.566 330.908 365.816 330.129 363.52 330.129C362.59 330.129 361.742 330.279 360.977 330.58C359.199 331.291 358.311 332.562 358.311 334.395C358.311 335.078 358.475 335.721 358.803 336.322C359.432 337.416 360.963 338.482 363.396 339.521C366.076 340.697 367.676 341.422 368.195 341.695C370.82 343.172 372.133 345.127 372.133 347.561ZM394.117 347.561C394.117 349.229 393.529 350.664 392.354 351.867C390.631 353.562 388.197 354.41 385.053 354.41C382.373 354.41 379.98 353.713 377.875 352.318C377.875 352.893 377.848 353.289 377.793 353.508C377.684 353.891 377.301 354.082 376.645 354.082V345.592H377.875C378.34 350.65 380.664 353.207 384.848 353.262C385.914 353.262 386.885 353.07 387.76 352.688C389.619 351.84 390.549 350.459 390.549 348.545C390.549 347.807 390.371 347.123 390.016 346.494C389.359 345.373 387.801 344.266 385.34 343.172C382.688 342.023 381.129 341.326 380.664 341.08C378.094 339.631 376.809 337.758 376.809 335.461C376.809 333.93 377.355 332.59 378.449 331.441C380.09 329.801 382.387 328.98 385.34 328.98C387.773 328.98 389.961 329.514 391.902 330.58C391.902 330.252 391.93 329.992 391.984 329.801C392.094 329.391 392.477 329.186 393.133 329.186V336.363H391.902C391.93 334.832 391.547 333.533 390.754 332.467C389.551 330.908 387.801 330.129 385.504 330.129C384.574 330.129 383.727 330.279 382.961 330.58C381.184 331.291 380.295 332.562 380.295 334.395C380.295 335.078 380.459 335.721 380.787 336.322C381.416 337.416 382.947 338.482 385.381 339.521C388.061 340.697 389.66 341.422 390.18 341.695C392.805 343.172 394.117 345.127 394.117 347.561ZM416.922 336.773H416.102L415.527 334.846C415.5 334.736 415.459 334.6 415.404 334.436C414.557 331.783 413.148 330.457 411.18 330.457H404.617V340.711H413.066V341.9H404.617V352.934H411.18C411.645 352.934 412.082 352.865 412.492 352.729C413.832 352.264 414.844 350.869 415.527 348.545L416.102 346.617H416.922L416.717 354H397.809V352.934H401.09V330.457H397.809V329.391H416.717L416.922 336.773ZM438.906 347.561C438.906 349.229 438.318 350.664 437.143 351.867C435.42 353.562 432.986 354.41 429.842 354.41C427.162 354.41 424.77 353.713 422.664 352.318C422.664 352.893 422.637 353.289 422.582 353.508C422.473 353.891 422.09 354.082 421.434 354.082V345.592H422.664C423.129 350.65 425.453 353.207 429.637 353.262C430.703 353.262 431.674 353.07 432.549 352.688C434.408 351.84 435.338 350.459 435.338 348.545C435.338 347.807 435.16 347.123 434.805 346.494C434.148 345.373 432.59 344.266 430.129 343.172C427.477 342.023 425.918 341.326 425.453 341.08C422.883 339.631 421.598 337.758 421.598 335.461C421.598 333.93 422.145 332.59 423.238 331.441C424.879 329.801 427.176 328.98 430.129 328.98C432.562 328.98 434.75 329.514 436.691 330.58C436.691 330.252 436.719 329.992 436.773 329.801C436.883 329.391 437.266 329.186 437.922 329.186V336.363H436.691C436.719 334.832 436.336 333.533 435.543 332.467C434.34 330.908 432.59 330.129 430.293 330.129C429.363 330.129 428.516 330.279 427.75 330.58C425.973 331.291 425.084 332.562 425.084 334.395C425.084 335.078 425.248 335.721 425.576 336.322C426.205 337.416 427.736 338.482 430.17 339.521C432.85 340.697 434.449 341.422 434.969 341.695C437.594 343.172 438.906 345.127 438.906 347.561Z" fill="white"/>
</svg>
